# xmcd CD database file
#
# Track frame offsets:
#	150
#	17637
#	33820
#	49857
#	64290
#	83130
#	95662
#	110407
#	136240
#	152662
#	167112
#	185460
#	199930
#	218975
#	238227
#	256370
#
# Disc length: 3651 seconds
#
# Revision: 0
# Processed by: cddbd v1.5.1PL2 Copyright (c) Steve Scherf et al.
# Submitted via: CD2WAV32(JP) R3.22
#
DISCID=e00e4110
DTITLE=ナレーション：城達也 - JALジェットストリーム　オーストラリア（サザンクロス）
DYEAR=1989
DGENRE=Easy Listening
TTITLE0=ミスター・ロンリー
TTITLE1=涙のトッカータ
TTITLE2=愛のオルゴール
TTITLE3=ドランの微笑
TTITLE4=青い影
TTITLE5=風のささやき
TTITLE6=スター誕生〜愛のテーマ
TTITLE7=スティル・ラヴ・ミー
TTITLE8=泣かないでエロディ
TTITLE9=オーブレ
TTITLE10=マイ・ウェイ
TTITLE11=ファンダンゴ
TTITLE12=レオノーラ
TTITLE13=メロディーズ・オブ・ラヴ
TTITLE14=キャント・ストップ・ラヴィング・ユー
TTITLE15=夢幻飛行
EXTD=
EXTT0=
EXTT1=
EXTT2=
EXTT3=
EXTT4=
EXTT5=
EXTT6=
EXTT7=
EXTT8=
EXTT9=
EXTT10=
EXTT11=
EXTT12=
EXTT13=
EXTT14=
EXTT15=
PLAYORDER=
